<?xml version="1.0" encoding="UTF-8" standalone="no"?><!DOCTYPE svg PUBLIC "-//W3C//DTD SVG 1.1//EN" "http://www.w3.org/Graphics/SVG/1.1/DTD/svg11.dtd"><svg width="100%" height="100%" viewBox="0 0 673 238" version="1.1" xmlns="http://www.w3.org/2000/svg" xmlns:xlink="http://www.w3.org/1999/xlink" xml:space="preserve" style="fill-rule:evenodd;clip-rule:evenodd;stroke-linejoin:round;stroke-miterlimit:10;"><g id="Layer-2"><rect x="94.054" y="109.601" width="538.958" height="96.308" style="fill:#161616;fill-rule:nonzero;"/><path d="M174.62,21.444c0,0 6.173,-14.325 16.206,-18.646c10.032,-4.323 213.761,-3.087 222.404,0c8.643,3.086 14.2,18.646 14.2,18.646l-252.81,0Z" style="fill:#007ded;fill-rule:nonzero;"/><path d="M111.265,24.222c-10.526,-21.256 -83.54,-16.394 -86.303,-13.888c-5.802,5.263 -2.778,48.947 -2.778,48.947l89.081,0l0,-35.059Z" style="fill:#007ded;fill-rule:nonzero;"/><path d="M656.78,21.627c-15.743,-15.743 -596.927,-13.861 -615.236,-0.927c-20.14,14.23 -40.051,80.581 -40.745,97.235c-0.553,13.273 -2.47,91.061 2.778,95.383c3.761,3.096 101.646,1.071 101.646,1.071c0,-32.094 7.226,-62.19 46.246,-62.19c39.992,0 46.282,33.337 46.282,64.085l285.093,1.496c0,-33.633 7.759,-65.581 46.296,-65.581c38.013,0 46.283,30.559 46.283,64.526c81.103,-1.47 83.193,-1.539 87.839,-6.185c16.669,-16.669 9.26,-173.171 -6.482,-188.913" style="fill:#1a98ff;fill-rule:nonzero;"/><g><clipPath id="_clip1"><path d="M41.545,20.701c-20.141,14.229 -40.052,80.58 -40.746,97.235c-0.553,13.273 -2.47,91.06 2.778,95.382c3.761,3.097 101.646,1.072 101.646,1.072c0,-32.094 7.227,-62.191 46.246,-62.191c39.992,0 46.282,33.337 46.282,64.085l285.092,1.497c0,-33.634 7.76,-65.582 46.298,-65.582c38.012,0 46.282,30.559 46.282,64.526c81.104,-1.47 83.193,-1.54 87.839,-6.185c16.668,-16.669 9.261,-173.171 -6.482,-188.913c-7.74,-7.74 -152.197,-11.219 -299.199,-11.22c-152.002,-0.001 -306.729,3.718 -316.036,10.294Z"/></clipPath><g clip-path="url(#_clip1)"><path d="M676.535,139.234l-18.521,-2.778l0,13.38l18.521,2.778l0,-13.38Z" style="fill:#ff9e1d;fill-rule:nonzero;"/><path d="M676.535,155.232l-18.521,-2.778l0,13.38l18.521,2.778l0,-13.38Z" style="fill:#ff332e;fill-rule:nonzero;"/><path d="M676.535,171.438l-18.521,-2.778l0,13.38l18.521,2.778l0,-13.38Z" style="fill:#ff332e;fill-rule:nonzero;"/><path d="M195.302,196.649l448.205,0c-32.72,9.26 -448.205,5.556 -448.205,5.556l0,-5.556Z" style="fill:#4db7ff;fill-rule:nonzero;"/><rect x="-7.494" y="157.755" width="16.14" height="11.555" style="fill:#ff9e1d;fill-rule:nonzero;"/></g></g><path d="M49.879,31.813c-18.858,13.969 -33.337,74.701 -33.337,74.701l631.903,0c0,0 4.322,-72.849 -6.79,-80.257c-11.113,-7.408 -575.107,-6.791 -591.776,5.556" style="fill:#7bfffb;fill-rule:nonzero;"/><g><clipPath id="_clip2"><path d="M49.879,31.813c-18.858,13.969 -33.338,74.701 -33.338,74.701l631.904,0c0,0 4.323,-72.849 -6.79,-80.257c-4.675,-3.116 -107.223,-4.812 -225.669,-4.813c-163.13,0 -356.45,3.216 -366.107,10.369Z"/></clipPath><g clip-path="url(#_clip2)"><path d="M140.693,14.461l-50.16,102.123l29.64,0l49.828,-100.85l-29.308,-1.273Z" style="fill:#b8fffb;fill-rule:nonzero;"/><path d="M183.894,14.461l-50.16,102.123l12.54,0l49.828,-100.85l-12.208,-1.273Z" style="fill:#b8fffb;fill-rule:nonzero;"/><path d="M261.605,14.461l-50.16,102.123l29.64,0l49.827,-100.85l-29.307,-1.273Z" style="fill:#b8fffb;fill-rule:nonzero;"/><path d="M304.806,14.461l-50.16,102.123l12.54,0l49.827,-100.85l-12.207,-1.273Z" style="fill:#b8fffb;fill-rule:nonzero;"/><path d="M384.812,14.461l-50.16,102.123l29.64,0l49.828,-100.85l-29.308,-1.273Z" style="fill:#b8fffb;fill-rule:nonzero;"/><path d="M428.013,14.461l-50.16,102.123l12.54,0l49.827,-100.85l-12.207,-1.273Z" style="fill:#b8fffb;fill-rule:nonzero;"/><path d="M503.365,14.461l-50.16,102.123l29.64,0l49.827,-100.85l-29.307,-1.273Z" style="fill:#b8fffb;fill-rule:nonzero;"/><path d="M546.566,14.461l-50.16,102.123l12.54,0l49.827,-100.85l-12.207,-1.273Z" style="fill:#b8fffb;fill-rule:nonzero;"/><path d="M644.145,14.461l-50.16,102.123l12.54,0l49.828,-100.85l-12.208,-1.273Z" style="fill:#b8fffb;fill-rule:nonzero;"/><path d="M85.307,14.461l-50.16,102.123l12.54,0l49.828,-100.85l-12.208,-1.273Z" style="fill:#b8fffb;fill-rule:nonzero;"/></g></g><path d="M49.879,31.813c-18.858,13.969 -33.337,74.701 -33.337,74.701l631.903,0c0,0 4.322,-72.849 -6.79,-80.257c-11.113,-7.408 -575.107,-6.791 -591.776,5.556Z" style="fill:none;stroke:#172c82;stroke-width:4.63px;"/><rect x="77.043" y="27.544" width="11.113" height="78.97" style="fill:#172c82;fill-rule:nonzero;"/><rect x="199.189" y="21.901" width="11.113" height="84.612" style="fill:#172c82;fill-rule:nonzero;"/><rect x="321.335" y="21.901" width="11.113" height="84.612" style="fill:#172c82;fill-rule:nonzero;"/><rect x="443.482" y="21.901" width="11.113" height="84.612" style="fill:#172c82;fill-rule:nonzero;"/><rect x="573.127" y="21.901" width="11.113" height="84.612" style="fill:#172c82;fill-rule:nonzero;"/><rect x="451.474" y="85.237" width="197.72" height="21.277" style="fill:#172c82;fill-rule:nonzero;"/><path d="M190.826,198.501c0,21.736 -17.621,39.357 -39.357,39.357c-21.736,0 -39.357,-17.621 -39.357,-39.357c0,-21.737 17.621,-39.357 39.357,-39.357c21.736,0 39.357,17.62 39.357,39.357" style="fill:#303030;fill-rule:nonzero;"/><path d="M174.62,198.501c0,12.786 -10.365,23.151 -23.151,23.151c-12.786,0 -23.151,-10.365 -23.151,-23.151c0,-12.786 10.365,-23.151 23.151,-23.151c12.786,0 23.151,10.365 23.151,23.151" style="fill:#666;fill-rule:nonzero;"/><path d="M568.497,198.501c0,21.736 -17.62,39.357 -39.357,39.357c-21.736,0 -39.357,-17.621 -39.357,-39.357c0,-21.737 17.621,-39.357 39.357,-39.357c21.737,0 39.357,17.62 39.357,39.357" style="fill:#303030;fill-rule:nonzero;"/><path d="M552.291,198.501c0,12.786 -10.365,23.151 -23.151,23.151c-12.786,0 -23.151,-10.365 -23.151,-23.151c0,-12.786 10.365,-23.151 23.151,-23.151c12.786,0 23.151,10.365 23.151,23.151" style="fill:#666;fill-rule:nonzero;"/><rect x="16.542" y="108.457" width="60.502" height="96.989" style="fill:#7bfffb;fill-rule:nonzero;"/><clipPath id="_clip3"><rect x="16.541" y="108.457" width="60.502" height="96.99"/></clipPath><g clip-path="url(#_clip3)"><path d="M45.079,84.683l-50.16,120.763l12.54,0l49.828,-119.259l-12.208,-1.504Z" style="fill:#b8fffb;fill-rule:nonzero;"/></g><rect x="16.542" y="108.457" width="60.502" height="96.989" style="fill:none;stroke:#172c82;stroke-width:5.03px;"/><path d="M158.414,198.501c0,3.835 -3.109,6.945 -6.945,6.945c-3.836,0 -6.946,-3.11 -6.946,-6.945c0,-3.836 3.11,-6.945 6.946,-6.945c3.836,0 6.945,3.109 6.945,6.945" style="fill:#303030;fill-rule:nonzero;"/><path d="M536.086,198.501c0,3.835 -3.11,6.945 -6.945,6.945c-3.837,0 -6.946,-3.11 -6.946,-6.945c0,-3.836 3.109,-6.945 6.946,-6.945c3.835,0 6.945,3.109 6.945,6.945" style="fill:#303030;fill-rule:nonzero;"/><rect x="269.602" y="156.952" width="23.923" height="7.137" style="fill:#007ded;fill-rule:nonzero;"/><rect x="388.507" y="156.952" width="23.923" height="7.137" style="fill:#007ded;fill-rule:nonzero;"/><rect x="91.445" y="141.388" width="14.989" height="7.137" style="fill:#ff9e1d;fill-rule:nonzero;"/></g></svg>